<svg xmlns="http://www.w3.org/2000/svg" width="1920" height="1080">
  <rect width="100%" height="100%" fill="black" />
  <g class="stars">
    <circle cx="100" cy="150" r="1" fill="white" />
    <circle cx="400" cy="300" r="2" fill="white" />
    <circle cx="600" cy="200" r="1.5" fill="white" />
    <circle cx="800" cy="500" r="2.5" fill="white" />
    <circle cx="1200" cy="400" r="1" fill="white" />
    <circle cx="1400" cy="700" r="2" fill="white" />
    <circle cx="1600" cy="250" r="1.2" fill="white" />
    <circle cx="1800" cy="900" r="1.8" fill="white" />
    <circle cx="300" cy="800" r="2.2" fill="white" />
    <circle cx="900" cy="100" r="1.5" fill="white" />
    <circle cx="1100" cy="600" r="2" fill="white" />
    <circle cx="500" cy="900" r="1.3" fill="white" />
    <circle cx="1700" cy="100" r="2" fill="white" />
    <circle cx="150" cy="950" r="1" fill="white" />
    <circle cx="650" cy="750" r="2.5" fill="white" />
    <circle cx="1250" cy="850" r="1.4" fill="white" />
    <circle cx="1450" cy="150" r="1.7" fill="white" />
    <circle cx="1550" cy="550" r="2.3" fill="white" />
    <circle cx="250" cy="400" r="1.6" fill="white" />
    <circle cx="750" cy="300" r="2.1" fill="white" />
  </g>
</svg>
